<svg width="81" height="81" viewBox="0 0 81 81" fill="none" xmlns="http://www.w3.org/2000/svg">
<ellipse cx="40.4591" cy="40.4483" rx="40.4591" ry="40.4483" fill="#D8D8D8"/>
<path d="M61.9956 37.9978H52.8983L59.9667 30.9294L56.8907 27.8315L46.7243 37.9978H42.3611V33.6346L52.5274 23.4683L49.4295 20.3922L42.3611 27.4606V18.3633H37.9978V27.4606L30.9294 20.3922L27.8315 23.4683L37.9978 33.6346V37.9978H33.6346L23.4683 27.8315L20.3922 30.9294L27.4606 37.9978H18.3633V42.3611H27.4606L20.3922 49.4295L23.4683 52.5274L33.6346 42.3611H37.9978V46.7243L27.8315 56.8907L30.9294 59.9667L37.9978 52.8983V61.9956H42.3611V52.8983L49.4295 59.9667L52.5274 56.8907L42.3611 46.7243V42.3611H46.7243L56.8907 52.5274L59.9667 49.4295L52.8983 42.3611H61.9956V37.9978Z" fill="#252525"/>
<line x1="10.4436" y1="14.7826" x2="69.4436" y2="67.7826" stroke="#FF0000" stroke-width="8"/>
</svg>
