<svg width="81" height="81" viewBox="0 0 81 81" fill="none" xmlns="http://www.w3.org/2000/svg">
<circle cx="40.5" cy="40.5" r="40.5" fill="#0085FF"/>
<path fill-rule="evenodd" clip-rule="evenodd" d="M47.0514 63.3756L33.9485 63.3756L33.9485 52.8714C30.0394 50.6002 27.397 46.3855 27.397 41.5374C27.397 34.3089 33.2715 28.4344 40.4999 28.4344C47.7284 28.4344 53.6029 34.3089 53.6029 41.5374C53.6029 46.3855 50.9605 50.6002 47.0514 52.8714L47.0514 63.3756ZM38.3161 59.008L38.3161 50.36L36.1322 49.0934C33.4243 47.5211 31.7646 44.6384 31.7646 41.5374C31.7646 36.7111 35.6736 32.8021 40.4999 32.8021C45.3261 32.8021 49.2352 36.7111 49.2352 41.5374C49.2352 44.6384 47.5536 47.5211 44.8675 49.0934L42.6837 50.36L42.6837 59.008L38.3161 59.008ZM59.022 43.8304L64.522 43.8304L64.522 40.1637L59.022 40.1637L59.022 43.8304ZM58.9533 26.7941L56.3683 24.2091L53.0866 27.5091L55.6716 30.0941L58.9533 26.7941ZM42.6837 24.176L39.017 24.176L39.017 18.676L42.6837 18.676L42.6837 24.176ZM23.0293 43.8304L17.5293 43.8304L17.5293 40.1637L23.0293 40.1637L23.0293 43.8304ZM25.775 24.1838L29.0567 27.4838L26.49 30.0504L23.19 26.7688L25.775 24.1838Z" fill="white"/>
</svg>
