<svg width="81" height="81" viewBox="0 0 81 81" fill="none" xmlns="http://www.w3.org/2000/svg">
<ellipse cx="40.4591" cy="40.4483" rx="40.4591" ry="40.4483" fill="#D8D8D8"/>
<path fill-rule="evenodd" clip-rule="evenodd" d="M47.0041 63.2948L33.9144 63.2948L33.9144 52.804C30.0093 50.5358 27.3696 46.3264 27.3696 41.4845C27.3696 34.2652 33.2381 28.3982 40.4593 28.3982C47.6804 28.3982 53.549 34.2652 53.549 41.4845C53.549 46.3264 50.9092 50.5357 47.0041 52.804L47.0041 63.2948ZM38.2776 58.9327L38.2776 50.2958L36.096 49.0308C33.3908 47.4605 31.7327 44.5815 31.7327 41.4845C31.7327 36.6644 35.6378 32.7603 40.4592 32.7603C45.2806 32.7603 49.1857 36.6644 49.1857 41.4845C49.1857 44.5815 47.5058 47.4605 44.8224 49.0308L42.6408 50.2958L42.6408 58.9327L38.2776 58.9327ZM57.9122 43.7745L64.457 43.7745L64.457 39.4125L57.9122 39.4125L57.9122 43.7745ZM58.894 26.13L55.8179 23.0547L51.9128 26.9806L54.9889 30.0558L58.894 26.13ZM42.6408 24.1452L38.2776 24.1452L38.2776 17.6021L42.6408 17.6021L42.6408 24.1452ZM23.0063 43.7745L16.4614 43.7745L16.4614 39.4125L23.0063 39.4125L23.0063 43.7745ZM25.1224 23.0329L29.0275 26.9588L25.9733 30.0122L22.0464 26.1082L25.1224 23.0329Z" fill="#252525"/>
<line x1="10.4436" y1="14.7826" x2="69.4436" y2="67.7826" stroke="#FF0000" stroke-width="8"/>
</svg>
